# xmcd
#
# Track frame offsets: 
#        150
#        18479
#        32213
#        46274
#        65561
#        76487
#        94144
#        107161
#        122065
#        139134
#        152663
#        163082
#        177998
#        195523
#
# Disc length: 2866 seconds
#
# Revision: 0
# Processed by: cddbd v1.5.2PL0 Copyright (c) Steve Scherf et al.
# Submitted via: ExactAudioCopy v0.99pb4
#
DISCID=bc0b300e
DTITLE=Marvin Gaye - Playlist Your Way
DYEAR=2008
DGENRE=R&B
TTITLE0=Let's Get It On
TTITLE1=How Sweet It Is (To Be Loved By You)
TTITLE2=Your Special Love (Duet with Tammi Terrell)
TTITLE3=Got To Give It Up, Part 1
TTITLE4=If I Could Build My Whole World Around You (Duet with Tammi Te
TTITLE4=rrell)
TTITLE5=What's Going On
TTITLE6=You're All I Need To Get By (Duet with Tammi Terrell)
TTITLE7=I Heard It Through the Grapevine
TTITLE8=That's The Way Love Is
TTITLE9=Too Busy Thinking About My Baby
TTITLE10=Ain't Nothing Like The Real Thing  (Duet with Tammi Terrell)
TTITLE11=Mercy Mercy Me (The Ecology)
TTITLE12=Trouble Man
TTITLE13=Distant Lover
EXTD=
EXTT0=
EXTT1=
EXTT2=
EXTT3=
EXTT4=
EXTT5=
EXTT6=
EXTT7=
EXTT8=
EXTT9=
EXTT10=
EXTT11=
EXTT12=
EXTT13=
PLAYORDER=
